<?xml version="1.0" standalone="no"?>
<!DOCTYPE svg PUBLIC "-//W3C//DTD SVG 20010904//EN"
 "http://www.w3.org/TR/2001/REC-SVG-20010904/DTD/svg10.dtd">
<svg version="1.0" xmlns="http://www.w3.org/2000/svg"
 width="689.000000pt" height="689.000000pt" viewBox="0 0 689.000000 689.000000"
 preserveAspectRatio="xMidYMid meet">
<metadata>
Created by potrace 1.14, written by Peter Selinger 2001-2017
</metadata>
<g transform="translate(0.000000,689.000000) scale(0.100000,-0.100000)"
fill="#000000" stroke="none">
<path d="M3145 6880 c-197 -21 -351 -48 -522 -90 -840 -205 -1587 -747 -2059
-1492 -257 -407 -436 -890 -499 -1353 -3 -22 -7 -49 -10 -60 -20 -95 -28 -583
-12 -755 63 -714 355 -1403 827 -1951 109 -127 302 -313 455 -438 388 -317
917 -567 1420 -670 264 -54 400 -66 725 -65 342 0 514 21 820 100 1250 321
2216 1330 2494 2604 54 252 70 404 70 700 1 151 -2 309 -6 350 -11 107 -26
227 -38 285 -5 28 -12 61 -14 75 -21 118 -78 328 -130 477 -311 891 -991 1625
-1858 2008 -299 131 -590 213 -938 261 -127 18 -604 27 -725 14z"/>
</g>
</svg>
